<svg width="45" height="46" viewBox="0 0 45 46" fill="none" xmlns="http://www.w3.org/2000/svg">
<g id="Frame 2608168">
<g id="Petals">
<g id="Group 72">
<path id="Rectangle 130" d="M16.8986 14.2498C11.7463 9.23683 15.2954 0.5 22.4839 0.5C29.6725 0.5 33.2215 9.23684 28.0693 14.2498L22.4839 19.6842L16.8986 14.2498Z" fill="#CBEA7B"/>
<path id="Rectangle 131" d="M16.9308 31.7502C11.7786 36.7632 15.3276 45.5 22.5162 45.5C29.7047 45.5 33.2537 36.7632 28.1015 31.7502L22.5162 26.3158L16.9308 31.7502Z" fill="#CBEA7B"/>
</g>
<g id="Group 73">
<path id="Rectangle 130_2" d="M13.7498 28.6009C8.73683 33.7532 0 30.2042 0 23.0156C0 15.827 8.73684 12.278 13.7498 17.4302L19.1842 23.0156L13.7498 28.6009Z" fill="#CBEA7B"/>
<path id="Rectangle 131_2" d="M31.2502 28.5687C36.2632 33.7209 45 30.1719 45 22.9834C45 15.7948 36.2632 12.2458 31.2502 17.398L25.8158 22.9834L31.2502 28.5687Z" fill="#CBEA7B"/>
</g>
</g>
</g>
</svg>
